<svg xmlns="http://www.w3.org/2000/svg" width="481.988" height="481.988" viewBox="0 0 481.988 481.988">
  <g id="woman_icon" transform="translate(0 0)">
    <path id="Pfad_966" data-name="Pfad 966" d="M392.592-449.579c70.053,70.053,70.053,183.8,0,253.855s-183.8,70.053-253.855,0-70.053-183.8,0-253.855S322.539-519.632,392.592-449.579Zm-63.464,63.464a89.793,89.793,0,0,1,0,126.927,89.794,89.794,0,0,1-126.927,0,89.794,89.794,0,0,1,0-126.927A89.793,89.793,0,0,1,329.128-386.114Z" transform="translate(-86.198 625.172)" fill="#f2d3db" fill-rule="evenodd"/>
    <path id="Pfad_967" data-name="Pfad 967" d="M607.266-581.447,544-644.709,371.429-472.133l63.261,63.261Z" transform="translate(-125.278 644.709)" fill="#f2d3db" fill-rule="evenodd"/>
    <path id="Pfad_968" data-name="Pfad 968" d="M541.039-399.463h89.466V-643.521H541.039Z" transform="translate(-148.517 644.546)" fill="#f2d3db" fill-rule="evenodd"/>
    <path id="Pfad_969" data-name="Pfad 969" d="M361.9-555.243H605.96v-89.466H361.9Z" transform="translate(-123.973 644.709)" fill="#f2d3db" fill-rule="evenodd"/>
  </g>
</svg>
